<?xml version="1.0" encoding="UTF-8"?>
<svg id="_图层_2" data-name="图层 2" xmlns="http://www.w3.org/2000/svg" viewBox="0 0 172.9 230.69">
  <defs>
    <style>
      .cls-1 {
        fill: #fff;
      }
    </style>
  </defs>
  <g id="_图层_1-2" data-name="图层 1">
    <g>
      <path d="M107.94,102.77c0-5.8,.14-10.45-.09-15.09-.06-1.25-1.17-2.49-1.91-3.66-.24-.38-.82-.54-1.25-.8-5.74-3.35-11.39-9.16-17.24-9.35-5.58-.19-11.4,5.4-17.05,8.56-10.9,6.1-21.8,12.2-32.6,18.47-3.4,1.97-6.37,2.13-9.8,.12-7.75-4.55-15.8-8.63-23.38-13.44-2.11-1.34-4.13-4.51-4.26-6.95-.49-9.31-.49-18.67,0-27.97,.13-2.46,2.06-5.81,4.16-7.03C30.59,30.49,56.79,15.57,83.13,.94c2.26-1.26,6.47-1.25,8.71,.03,25.78,14.64,51.33,29.66,76.99,44.49,2.99,1.73,4.06,4.07,4.06,7.36-.04,41.16-.04,82.32,.01,123.48,0,3.54-1.33,5.82-4.43,7.65-25.38,14.98-50.7,30.08-76.01,45.2-3.36,2.01-6.48,2.06-9.85,.12-25.99-14.93-51.99-29.84-78.04-44.68-3.08-1.75-4.52-4-4.46-7.62,.15-10.16-.21-20.34,.24-30.49,.11-2.48,1.97-5.88,4.05-7.12,26.18-15.59,52.57-30.84,78.86-46.25,3.12-1.83,5.84-1.64,8.84,.26,4.89,3.09,9.94,5.93,15.82,9.4Zm-19.24-68.42c0,9.15,.14,17.27-.07,25.38-.08,3.07,.96,4.8,3.62,6.3,6.81,3.86,13.57,7.83,20.04,12.22,1.87,1.27,3.66,4.04,3.78,6.22,.45,7.97,.27,15.99,.15,23.98-.08,5.5-2.98,7.09-7.8,4.32-6.06-3.49-11.94-7.3-18.11-10.59-1.51-.8-4.22-.86-5.67-.02-24.4,14.02-48.66,28.29-73.03,42.35-2.57,1.49-3.31,3.2-3.25,5.98,.16,7.33,.26,14.67-.04,21.99-.14,3.5,1.12,5.31,4.08,6.99,23.18,13.13,46.27,26.42,69.4,39.65,1.23,.71,2.57,1.23,4.39,2.1,0-9.13,.17-17.6-.08-26.05-.1-3.3,1.09-5.06,3.84-6.72,14.69-8.85,29.21-17.99,43.92-26.82,2.95-1.77,3.99-3.74,3.98-7.16-.14-27.99,0-55.99-.17-83.98-.02-3.9,1.17-6.04,4.68-7.72,6.82-3.27,13.41-7,20.18-10.58-.52-.68-.66-1.03-.92-1.18-23.89-13.91-47.76-27.84-71.73-41.61-1.25-.72-3.63-.68-4.9,.03C60.28,23.3,35.67,37.28,11.14,51.41c-1.35,.78-2.56,3-2.62,4.59-.28,7.15-.18,14.33-.07,21.49,.02,1.18,.42,2.94,1.24,3.43,6.93,4.13,13.99,8.02,21.73,12.38,0-8.6,.18-16.08-.08-23.55-.11-3.34,1.12-5.02,3.99-6.57,16.12-8.69,32.13-17.6,48.18-26.41,1.28-.7,2.64-1.25,5.18-2.43Z"/>
      <path class="cls-1" d="M86.71,161.2c9.01-5.55,17.66-10.88,26.76-16.48-2.31-1.73-4.02-3.28-5.96-4.42-6.15-3.61-12.33-7.16-18.64-10.48-1.12-.59-3.12-.4-4.31,.21-6.34,3.26-12.57,6.75-18.81,10.2-2.4,1.32-4.73,2.76-8.24,4.82,10.56,5.84,20.05,11.09,29.21,16.15Z"/>
      <path d="M86.71,161.2c-9.16-5.07-18.65-10.31-29.21-16.15,3.51-2.06,5.84-3.49,8.24-4.82,6.24-3.45,12.47-6.94,18.81-10.2,1.19-.61,3.2-.8,4.31-.21,6.31,3.32,12.49,6.87,18.64,10.48,1.95,1.14,3.65,2.69,5.96,4.42-9.09,5.6-17.74,10.93-26.76,16.48Z"/>
    </g>
  </g>
</svg>