<?xml version="1.0" encoding="UTF-8"?>
<svg id="_图层_2" data-name="图层 2" xmlns="http://www.w3.org/2000/svg" viewBox="0 0 133.4 133.4">
  <defs>
    <style>
      .cls-1 {
        fill: #0e4964;
      }

      .cls-2 {
        fill: #fefefe;
      }
    </style>
  </defs>
  <g id="_图层_1-2" data-name="图层 1">
    <g>
      <rect class="cls-1" width="133.4" height="133.4" rx="29.35" ry="29.35"/>
      <path class="cls-2" d="M82.55,72.73c0-5.95,0-11.89,0-17.84,0-.57-.02-1.14-.08-1.71-.23-2.49-1.53-3.72-4.17-3.95-.71-.06-1.43-.1-2.15-.12-.31,0-.48-.08-.44-.42,0-.02,0-.05,0-.07q-.11-1.92,1.82-1.92c6.64,0,13.28-.05,19.92,.05,4.05,.06,8.05,.59,11.73,2.47,3.99,2.04,6.07,5.33,6.31,9.78,.21,3.94-.52,7.65-3.04,10.83-2.15,2.72-5.03,4.36-8.3,5.33-4.32,1.29-8.72,1.73-13.2,.99-1.01-.17-1.01-.2-1.01,.85,0,4.41,0,8.82,0,13.23,0,1.16,.1,2.32,.4,3.46,.42,1.62,1.44,2.59,3.06,2.98,1.31,.31,2.65,.36,3.98,.35,.48,0,.7,.06,.69,.63-.01,1.81,.01,1.81-1.81,1.81-5.25,0-10.51,0-15.76,0-5.35,0-10.7,.01-16.05,.07-.77,0-1.19-.25-1.59-.87-5.69-8.67-11.4-17.32-17.25-25.88-.24-.35-.49-.68-.73-1.03-1.02-1.47-2.44-2.22-4.21-2.27-1.39-.04-2.77-.01-4.16-.04-.4,0-.43,.17-.43,.49,.01,1.31,0,2.63,0,3.94,0,4.98,0,9.96,.03,14.94,0,1.24,.12,2.47,.4,3.68,.45,1.96,1.66,3.15,3.62,3.58,1.7,.37,3.43,.45,5.17,.43,.5,0,.72,.1,.67,.64-.05,.54-.04,1.09,0,1.63,.05,.56-.11,.78-.72,.75-1.36-.05-2.72-.02-4.09-.02-7.48,0-14.96,0-22.45,.01-.62,0-.9-.09-.82-.79,.08-.71-.22-1.65,.13-2.08,.37-.45,1.35-.09,2.05-.17,.86-.1,1.73-.14,2.58-.31,2.36-.46,3.52-1.85,3.89-4.59,.16-1.18,.22-2.37,.22-3.55,0-14.77,0-29.54,0-44.31,0-.84-.06-1.68-.18-2.52-.31-2.15-1.56-3.4-3.64-3.88-1.46-.34-2.93-.47-4.42-.43-.54,.02-.68-.15-.64-.66,.04-.64,.02-1.29,0-1.93,0-.32,.1-.46,.43-.42,.12,.01,.25,0,.37,0,8.35,0,16.7-.03,25.05,.01,4.84,.02,9.64,.45,14.25,2.09,3.34,1.19,6.24,3,8.16,6.09,1.3,2.09,1.89,4.39,2.04,6.82,.25,4.16-.56,8.03-3.21,11.36-2.07,2.61-4.79,4.33-7.81,5.62-1.73,.74-3.53,1.28-5.35,1.75-.17,.04-.42,0-.45,.28-.02,.2,.1,.3,.25,.4,2.52,1.72,4.33,4.12,6.14,6.5,3.98,5.22,7.67,10.64,11.45,16,.81,1.16,1.68,2.26,2.72,3.24,2.27,2.14,5.08,2.56,8.01,2.43,.96-.04,1.57-.86,1.95-1.75,.65-1.55,.62-3.2,.63-4.83,.03-5.72,.01-11.45,.01-17.17Zm-46.46-20.98c0,4.04,0,8.08,0,12.11,0,.42,.01,.84,0,1.26-.01,.31,.09,.42,.42,.44,3.7,.16,7.37-.04,10.97-1.02,2.86-.78,5.48-2.02,7.5-4.27,2.32-2.59,3.11-5.73,3.19-9.11,.05-2.3-.22-4.54-1.22-6.65-1.58-3.32-4.36-5.08-7.79-5.98-4.09-1.08-8.24-.78-12.4-.52-.53,.03-.68,.2-.67,.74,.03,4.33,.01,8.67,.01,13Zm53.85,9.73c0,3.57,.01,7.13-.01,10.7,0,.52,.12,.74,.66,.8,3.04,.31,6.08,.35,9.09-.28,4.12-.86,6.71-3.29,7.54-7.48,.31-1.59,.41-3.18,.37-4.8-.13-5.44-3.25-9.15-8.57-10.18-2.78-.54-5.56-.43-8.36-.17-.56,.05-.74,.19-.74,.78,.03,3.54,.01,7.08,.01,10.63Z"/>
    </g>
  </g>
</svg>