<?xml version="1.0" encoding="utf-8"?>
<!-- Generator: Adobe Illustrator 27.0.0, SVG Export Plug-In . SVG Version: 6.00 Build 0)  -->
<svg version="1.1" id="_图层_2" xmlns="http://www.w3.org/2000/svg" xmlns:xlink="http://www.w3.org/1999/xlink" x="0px" y="0px"
	 viewBox="0 0 132.5 129.8" style="enable-background:new 0 0 132.5 129.8;" xml:space="preserve">
<g id="_图层_1-2">
	<g>
		<path d="M64.5,0.5c18.2,0,36.3,0.1,54.5,0c4.8,0,8.8,3.5,9.4,7.7c0.1,0.5,0.1,0.9,0.1,1.4c0,36.6,0,73.3,0,109.9
			c0,4.9-3.9,8.9-8.7,9.1c-0.3,0-0.6,0-1,0c-36.2,0-72.5,0-108.8,0c-4.6,0-8-2.4-9.2-6.6c-0.2-0.9-0.4-1.8-0.4-2.7
			c0-36.5,0-73,0-109.6c0-5.2,3.9-9.2,9.1-9.3c4.4-0.1,8.8,0,13.2,0C36.7,0.5,50.6,0.5,64.5,0.5L64.5,0.5z M68.8,56.8
			c0-2.5,0-4.8,0-6.9c0-1-0.2-1.5-1.4-1.5c-5.3,0.1-10.5,0.1-15.8,0c-1.1,0-1.4,0.3-1.4,1.4c0,19.6,0,39.1,0,58.7
			c0,1.2,0.4,1.5,1.5,1.5c5.4,0,10.9-0.1,16.3,0c1.2,0,1.6-0.3,1.6-1.6c-0.1-9.8-0.1-19.5,0-29.3c0-2.1,0.1-4.2,0.5-6.2
			c0.7-4.1,2.6-7.5,7-8.6c1.4-0.3,2.8-0.4,4.3-0.4c4.5,0,7.3,2.2,8.3,6.6c0.6,2.5,0.8,5.1,0.8,7.6c0.1,10.1,0.1,20.2,0,30.2
			c0,1.2,0.3,1.6,1.5,1.6c5.4-0.1,10.9-0.1,16.3,0c1.1,0,1.5-0.3,1.5-1.5c0-10.9,0-21.8,0-32.6c0-4.4-0.2-8.8-1.2-13.1
			c-1.4-5.9-4.1-11-9.9-13.6c-5.8-2.6-11.8-3.1-18-1.5C75.7,48.9,71.8,52,68.8,56.8L68.8,56.8z M19.3,79.2c0,9.8,0,19.5,0,29.3
			c0,1.2,0.4,1.6,1.6,1.5c5.4-0.1,10.9-0.1,16.3,0c1.1,0,1.5-0.3,1.5-1.5c0-19.6,0-39.1,0-58.7c0-1.1-0.3-1.5-1.4-1.4
			c-5.4,0.1-10.9,0-16.3,0c-1.1,0-1.6,0.5-1.6,1.6C19.3,59.8,19.3,69.5,19.3,79.2L19.3,79.2z M28.9,40.2c6.2,0,11.2-4.9,11.2-11
			c0-6.2-4.9-11.3-11-11.3c-6.2,0-11.2,4.9-11.2,11.1C17.9,35.2,22.8,40.2,28.9,40.2z"/>
	</g>
</g>
</svg>
