<?xml version="1.0" encoding="UTF-8"?>
<svg class="plus-sign" enable-background="new 0 0 64 64" version="1.1" viewBox="0 0 64 64" xml:space="preserve" xmlns="http://www.w3.org/2000/svg">
	<g id="windmill">
	<polygon points="36.7 31.3 45.8 31.3 45.7 12.3 32.6 3.3 32.6 27.2 28.4 31.3 19.4 31.3 19.4 50.3 32.6 59.3 32.6 35.5" fill="#84fab0"/>
	<polygon points="32.6 35.5 32.6 44.5 51.6 44.5 60.6 31.3 36.7 31.3 32.6 27.2 32.6 18.2 13.6 18.2 4.6 31.3 28.4 31.3" fill="#3fbfff"/>
	<path d="m45.7 13.8-12.4 14-0.7-0.7v-1.5l12.3-13.9 0.8 0.6v1.5zm-13.1 23.2-12.3 13.9-0.8-0.6v-1.5l12.4-14 0.7 0.7v1.5z" fill="#69c68c"/>
	<path d="m51.6 44.5h-1.5l-14-12.4 0.7-0.7h1.5l13.9 12.3-0.6 0.8zm-23.2-13.2h-1.5l-13.9-12.3 0.6-0.8h1.5l14 12.4-0.7 0.7z" fill="#359fd4"/>
	</g>
	<g id="axis">
	<path d="m32.6 26.7c2.5 0 4.6 2.1 4.6 4.6s-2.1 4.6-4.6 4.6-4.6-2-4.6-4.6c0-2.5 2-4.6 4.6-4.6z" fill="#999"/>
	</g>
</svg>



<svg version="1.1" id="图层_1" xmlns="http://www.w3.org/2000/svg" xmlns:xlink="http://www.w3.org/1999/xlink" x="0px" y="0px"
	 viewBox="0 0 64 64" style="enable-background:new 0 0 64 64;" xml:space="preserve" class="plus-sign">
<g id="windmill">
	<polygon fill="#84fab0" points="36.7,31.3 45.8,31.3 45.7,12.3 32.6,3.3 32.6,27.2 28.4,31.3 19.4,31.3 19.4,50.3 32.6,59.3 32.6,35.5 	"/>
	<polygon fill="#3fbfff" points="32.6,35.5 32.6,44.5 51.6,44.5 60.6,31.3 36.7,31.3 32.6,27.2 32.6,18.2 13.6,18.2 4.6,31.3 28.4,31.3 	"/>
	<path fill="#69c68c" d="M45.7,13.8l-12.4,14l0,0l-0.7-0.7l0-1.5l12.3-13.9l0.8,0.6L45.7,13.8z M32.6,37L20.3,50.9l-0.8-0.6v-1.5l12.4-14l0,0l0.7,0.7L32.6,37z"/>
	<path fill="#359fd4" d="M51.6,44.5l-1.5,0l-14-12.4l0,0l0.7-0.7l1.5,0l13.9,12.3L51.6,44.5z M28.4,31.3h-1.5L13,19l0.6-0.8l1.5,0l14,12.4l0,0L28.4,31.3z"/>
</g>
<g id="axis">
<path fill="#999" d="M32.6,26.7c2.5,0,4.6,2.1,4.6,4.6c0,2.5-2.1,4.6-4.6,4.6S28,33.9,28,31.3c0,0,0,0,0,0
		C28,28.8,30,26.7,32.6,26.7z"/>
</g>
</svg>
